<?xml version="1.0" encoding="utf-8"?>
<!-- Generator: Adobe Illustrator 21.0.0, SVG Export Plug-In . SVG Version: 6.00 Build 0)  -->
<svg version="1.1"
	 id="svg2" inkscape:version="0.91 r13725" sodipodi:docname="Shifty-Controller-Box-Laser-v2-holes.svg" xmlns:cc="http://creativecommons.org/ns#" xmlns:dc="http://purl.org/dc/elements/1.1/" xmlns:inkscape="http://www.inkscape.org/namespaces/inkscape" xmlns:rdf="http://www.w3.org/1999/02/22-rdf-syntax-ns#" xmlns:sodipodi="http://sodipodi.sourceforge.net/DTD/sodipodi-0.dtd" xmlns:svg="http://www.w3.org/2000/svg"
	 xmlns="http://www.w3.org/2000/svg" xmlns:xlink="http://www.w3.org/1999/xlink" x="0px" y="0px" viewBox="0 0 1100.6 800.1"
	 style="enable-background:new 0 0 1100.6 800.1;" xml:space="preserve">
<style type="text/css">
	.st0{fill:none;stroke:#000000;stroke-width:0.9;}
	.st1{fill:#FFFFFF;stroke:#000000;}
	.st2{fill:#FFFFFF;stroke:#000000;stroke-miterlimit:10;}
</style>
<sodipodi:namedview  bordercolor="#666666" borderopacity="1.0" fit-margin-bottom="0" fit-margin-left="0" fit-margin-right="0" fit-margin-top="0" id="base" inkscape:current-layer="layer1" inkscape:cx="581.03003" inkscape:cy="770.93079" inkscape:document-units="mm" inkscape:pageopacity="0.0" inkscape:pageshadow="2" inkscape:window-height="1017" inkscape:window-maximized="1" inkscape:window-width="1920" inkscape:window-x="1912" inkscape:window-y="120" inkscape:zoom="0.98994949" pagecolor="#ffffff" showgrid="false">
	</sodipodi:namedview>
<g id="g3338" transform="translate(22.500018,22.500018)">
	<polygon id="polygon3340" class="st0" points="57.2,-22.1 57.2,-10.8 79.9,-10.8 79.9,-22.1 102.6,-22.1 102.6,-10.8 125.3,-10.8 
		125.3,-22.1 147.9,-22.1 147.9,-10.8 170.6,-10.8 170.6,-22.1 193.3,-22.1 193.3,-10.8 221.6,-10.8 221.6,-22.1 250,-22.1 
		250,10.5 238.6,10.5 238.6,43.1 250,43.1 250,65.7 238.6,65.7 238.6,88.4 250,88.4 250,111.1 238.6,111.1 238.6,133.8 250,133.8 
		250,156.4 238.6,156.4 238.6,189 250,189 250,221.6 221.6,221.6 221.6,210.3 193.3,210.3 193.3,221.6 170.6,221.6 170.6,210.3 
		147.9,210.3 147.9,221.6 125.3,221.6 125.3,210.3 102.6,210.3 102.6,221.6 79.9,221.6 79.9,210.3 57.2,210.3 57.2,221.6 
		34.6,221.6 34.6,210.3 6.2,210.3 6.2,221.6 -22.1,221.6 -22.1,189 -10.8,189 -10.8,156.4 -22.1,156.4 -22.1,133.8 -10.8,133.8 
		-10.8,111.1 -22.1,111.1 -22.1,88.4 -10.8,88.4 -10.8,65.7 -22.1,65.7 -22.1,43.1 -10.8,43.1 -10.8,10.5 -22.1,10.5 -22.1,-22.1 
		6.2,-22.1 6.2,-10.8 34.6,-10.8 34.6,-22.1 	"/>
</g>
<g id="g3342" transform="translate(362.65778,22.500018)">
	<polygon id="polygon3344" class="st0" points="-10.8,-22.1 -10.8,-10.8 11.9,-10.8 11.9,-22.1 34.6,-22.1 34.6,-10.8 57.2,-10.8 
		57.2,-22.1 79.9,-22.1 79.9,-10.8 102.6,-10.8 102.6,-22.1 125.3,-22.1 125.3,-10.8 153.6,-10.8 153.6,-22.1 182,-22.1 182,10.5 
		170.6,10.5 170.6,43.1 182,43.1 182,65.7 170.6,65.7 170.6,88.4 182,88.4 182,111.1 170.6,111.1 170.6,133.8 182,133.8 182,156.4 
		170.6,156.4 170.6,189 182,189 182,221.6 153.6,221.6 153.6,210.3 125.3,210.3 125.3,221.6 102.6,221.6 102.6,210.3 79.9,210.3 
		79.9,221.6 57.2,221.6 57.2,210.3 34.6,210.3 34.6,221.6 11.9,221.6 11.9,210.3 -10.8,210.3 -10.8,221.6 -33.5,221.6 -33.5,210.3 
		-61.8,210.3 -61.8,221.6 -90.2,221.6 -90.2,189 -78.8,189 -78.8,156.4 -90.2,156.4 -90.2,133.8 -78.8,133.8 -78.8,111.1 
		-90.2,111.1 -90.2,88.4 -78.8,88.4 -78.8,65.7 -90.2,65.7 -90.2,43.1 -78.8,43.1 -78.8,10.5 -90.2,10.5 -90.2,-22.1 -61.8,-22.1 
		-61.8,-10.8 -33.5,-10.8 -33.5,-22.1 	"/>
</g>
<g id="g3346" transform="translate(702.81554,22.500018)">
	<polygon id="polygon3348" class="st0" points="-73.2,-22.1 -73.2,-10.8 -50.5,-10.8 -50.5,-22.1 -27.8,-22.1 -27.8,-10.8 
		-5.1,-10.8 -5.1,-22.1 17.5,-22.1 17.5,-10.8 40.2,-10.8 40.2,-22.1 62.9,-22.1 62.9,-10.8 85.6,-10.8 85.6,-22.1 108.3,-22.1 
		108.3,-10.8 130.9,-10.8 130.9,-22.1 153.6,-22.1 153.6,-10.8 176.3,-10.8 176.3,-22.1 199,-22.1 199,-10.8 221.6,-10.8 
		221.6,-22.1 244.3,-22.1 244.3,-10.8 267,-10.8 267,-22.1 289.7,-22.1 289.7,-10.8 312.3,-10.8 312.3,-22.1 335,-22.1 335,-10.8 
		366.2,-10.8 366.2,-22.1 386,-22.1 386,10.5 397.4,10.5 397.4,43.1 386,43.1 386,65.7 397.4,65.7 397.4,88.4 386,88.4 386,111.1 
		397.4,111.1 397.4,133.8 386,133.8 386,156.4 397.4,156.4 397.4,189 386,189 386,221.6 366.2,221.6 366.2,210.3 335,210.3 
		335,221.6 312.3,221.6 312.3,210.3 289.7,210.3 289.7,221.6 267,221.6 267,210.3 244.3,210.3 244.3,221.6 221.6,221.6 221.6,210.3 
		199,210.3 199,221.6 176.3,221.6 176.3,210.3 153.6,210.3 153.6,221.6 130.9,221.6 130.9,210.3 108.3,210.3 108.3,221.6 
		85.6,221.6 85.6,210.3 62.9,210.3 62.9,221.6 40.2,221.6 40.2,210.3 17.5,210.3 17.5,221.6 -5.1,221.6 -5.1,210.3 -27.8,210.3 
		-27.8,221.6 -50.5,221.6 -50.5,210.3 -73.2,210.3 -73.2,221.6 -95.8,221.6 -95.8,210.3 -127,210.3 -127,221.6 -146.9,221.6 
		-146.9,189 -158.2,189 -158.2,156.4 -146.9,156.4 -146.9,133.8 -158.2,133.8 -158.2,111.1 -146.9,111.1 -146.9,88.4 -158.2,88.4 
		-158.2,65.7 -146.9,65.7 -146.9,43.1 -158.2,43.1 -158.2,10.5 -146.9,10.5 -146.9,-22.1 -127,-22.1 -127,-10.8 -95.8,-10.8 
		-95.8,-22.1 	"/>
</g>
<g id="g3350" transform="translate(702.81554,327.22468)">
	<polygon id="polygon3352" class="st0" points="-73.2,-83.1 -73.2,-71.7 -50.5,-71.7 -50.5,-83.1 -27.8,-83.1 -27.8,-71.7 
		-5.1,-71.7 -5.1,-83.1 17.5,-83.1 17.5,-71.7 40.2,-71.7 40.2,-83.1 62.9,-83.1 62.9,-71.7 85.6,-71.7 85.6,-83.1 108.3,-83.1 
		108.3,-71.7 130.9,-71.7 130.9,-83.1 153.6,-83.1 153.6,-71.7 176.3,-71.7 176.3,-83.1 199,-83.1 199,-71.7 221.6,-71.7 
		221.6,-83.1 244.3,-83.1 244.3,-71.7 267,-71.7 267,-83.1 289.7,-83.1 289.7,-71.7 312.3,-71.7 312.3,-83.1 335,-83.1 335,-71.7 
		366.2,-71.7 366.2,-83.1 386,-83.1 386,-50.5 397.4,-50.5 397.4,-17.9 386,-17.9 386,4.8 397.4,4.8 397.4,27.5 386,27.5 386,50.1 
		397.4,50.1 397.4,72.8 386,72.8 386,95.5 397.4,95.5 397.4,128.1 386,128.1 386,160.7 366.2,160.7 366.2,149.4 335,149.4 
		335,160.7 312.3,160.7 312.3,149.4 289.7,149.4 289.7,160.7 267,160.7 267,149.4 244.3,149.4 244.3,160.7 221.6,160.7 221.6,149.4 
		199,149.4 199,160.7 176.3,160.7 176.3,149.4 153.6,149.4 153.6,160.7 130.9,160.7 130.9,149.4 108.3,149.4 108.3,160.7 
		85.6,160.7 85.6,149.4 62.9,149.4 62.9,160.7 40.2,160.7 40.2,149.4 17.5,149.4 17.5,160.7 -5.1,160.7 -5.1,149.4 -27.8,149.4 
		-27.8,160.7 -50.5,160.7 -50.5,149.4 -73.2,149.4 -73.2,160.7 -95.8,160.7 -95.8,149.4 -127,149.4 -127,160.7 -146.9,160.7 
		-146.9,128.1 -158.2,128.1 -158.2,95.5 -146.9,95.5 -146.9,72.8 -158.2,72.8 -158.2,50.1 -146.9,50.1 -146.9,27.5 -158.2,27.5 
		-158.2,4.8 -146.9,4.8 -146.9,-17.9 -158.2,-17.9 -158.2,-50.5 -146.9,-50.5 -146.9,-83.1 -127,-83.1 -127,-71.7 -95.8,-71.7 
		-95.8,-83.1 	"/>
</g>
<g id="g3354" transform="translate(22.500018,327.22468)">
	<polygon id="polygon3356" class="st0" points="57.2,-71.7 57.2,-83.1 79.9,-83.1 79.9,-71.7 102.6,-71.7 102.6,-83.1 125.3,-83.1 
		125.3,-71.7 147.9,-71.7 147.9,-83.1 170.6,-83.1 170.6,-71.7 193.3,-71.7 193.3,-83.1 221.6,-83.1 221.6,-71.7 238.6,-71.7 
		238.6,-51.9 250,-51.9 250,-20.7 238.6,-20.7 238.6,2 250,2 250,24.6 238.6,24.6 238.6,47.3 250,47.3 250,70 238.6,70 238.6,92.7 
		250,92.7 250,115.3 238.6,115.3 238.6,138 250,138 250,160.7 238.6,160.7 238.6,183.4 250,183.4 250,206 238.6,206 238.6,228.7 
		250,228.7 250,251.4 238.6,251.4 238.6,274.1 250,274.1 250,296.8 238.6,296.8 238.6,319.4 250,319.4 250,342.1 238.6,342.1 
		238.6,364.8 250,364.8 250,387.5 238.6,387.5 238.6,410.1 250,410.1 250,441.3 238.6,441.3 238.6,461.2 221.6,461.2 221.6,472.5 
		193.3,472.5 193.3,461.2 170.6,461.2 170.6,472.5 147.9,472.5 147.9,461.2 125.3,461.2 125.3,472.5 102.6,472.5 102.6,461.2 
		79.9,461.2 79.9,472.5 57.2,472.5 57.2,461.2 34.6,461.2 34.6,472.5 6.2,472.5 6.2,461.2 -10.8,461.2 -10.8,441.3 -22.1,441.3 
		-22.1,410.1 -10.8,410.1 -10.8,387.5 -22.1,387.5 -22.1,364.8 -10.8,364.8 -10.8,342.1 -22.1,342.1 -22.1,319.4 -10.8,319.4 
		-10.8,296.8 -22.1,296.8 -22.1,274.1 -10.8,274.1 -10.8,251.4 -22.1,251.4 -22.1,228.7 -10.8,228.7 -10.8,206 -22.1,206 
		-22.1,183.4 -10.8,183.4 -10.8,160.7 -22.1,160.7 -22.1,138 -10.8,138 -10.8,115.3 -22.1,115.3 -22.1,92.7 -10.8,92.7 -10.8,70 
		-22.1,70 -22.1,47.3 -10.8,47.3 -10.8,24.6 -22.1,24.6 -22.1,2 -10.8,2 -10.8,-20.7 -22.1,-20.7 -22.1,-51.9 -10.8,-51.9 
		-10.8,-71.7 6.2,-71.7 6.2,-83.1 34.6,-83.1 34.6,-71.7 	"/>
</g>
<g id="g3358" transform="translate(362.65778,327.22468)">
	<polygon id="polygon3360" class="st0" points="-10.8,-71.7 -10.8,-83.1 11.9,-83.1 11.9,-71.7 34.6,-71.7 34.6,-83.1 57.2,-83.1 
		57.2,-71.7 79.9,-71.7 79.9,-83.1 102.6,-83.1 102.6,-71.7 125.3,-71.7 125.3,-83.1 153.6,-83.1 153.6,-71.7 170.6,-71.7 
		170.6,-51.9 182,-51.9 182,-20.7 170.6,-20.7 170.6,2 182,2 182,24.6 170.6,24.6 170.6,47.3 182,47.3 182,70 170.6,70 170.6,92.7 
		182,92.7 182,115.3 170.6,115.3 170.6,138 182,138 182,160.7 170.6,160.7 170.6,183.4 182,183.4 182,206 170.6,206 170.6,228.7 
		182,228.7 182,251.4 170.6,251.4 170.6,274.1 182,274.1 182,296.8 170.6,296.8 170.6,319.4 182,319.4 182,342.1 170.6,342.1 
		170.6,364.8 182,364.8 182,387.5 170.6,387.5 170.6,410.1 182,410.1 182,441.3 170.6,441.3 170.6,461.2 153.6,461.2 153.6,472.5 
		125.3,472.5 125.3,461.2 102.6,461.2 102.6,472.5 79.9,472.5 79.9,461.2 57.2,461.2 57.2,472.5 34.6,472.5 34.6,461.2 11.9,461.2 
		11.9,472.5 -10.8,472.5 -10.8,461.2 -33.5,461.2 -33.5,472.5 -61.8,472.5 -61.8,461.2 -78.8,461.2 -78.8,441.3 -90.2,441.3 
		-90.2,410.1 -78.8,410.1 -78.8,387.5 -90.2,387.5 -90.2,364.8 -78.8,364.8 -78.8,342.1 -90.2,342.1 -90.2,319.4 -78.8,319.4 
		-78.8,296.8 -90.2,296.8 -90.2,274.1 -78.8,274.1 -78.8,251.4 -90.2,251.4 -90.2,228.7 -78.8,228.7 -78.8,206 -90.2,206 
		-90.2,183.4 -78.8,183.4 -78.8,160.7 -90.2,160.7 -90.2,138 -78.8,138 -78.8,115.3 -90.2,115.3 -90.2,92.7 -78.8,92.7 -78.8,70 
		-90.2,70 -90.2,47.3 -78.8,47.3 -78.8,24.6 -90.2,24.6 -90.2,2 -78.8,2 -78.8,-20.7 -90.2,-20.7 -90.2,-51.9 -78.8,-51.9 
		-78.8,-71.7 -61.8,-71.7 -61.8,-83.1 -33.5,-83.1 -33.5,-71.7 	"/>
</g>
<circle id="path3396" class="st1" cx="632.8" cy="292.6" r="25.9"/>
<circle class="st2" cx="765" cy="64.6" r="5.7"/>
<circle class="st2" cx="878.8" cy="64.6" r="5.7"/>
<circle class="st2" cx="765" cy="162.3" r="5.7"/>
<circle class="st2" cx="878.8" cy="162.3" r="5.7"/>
<circle class="st2" cx="725.2" cy="122.2" r="4.3"/>
<circle class="st2" cx="927" cy="122.2" r="4.3"/>
<circle class="st2" cx="655.8" cy="122.2" r="8.5"/>
<circle class="st2" cx="992" cy="122.2" r="8.5"/>
<circle class="st2" cx="710.9" cy="205.5" r="22.7"/>
<g id="g3338_1_" transform="translate(22.500018,22.500018)">
	<polygon id="polygon3340_1_" class="st0" points="609,481.4 609,492.8 631.7,492.8 631.7,481.4 654.4,481.4 654.4,492.8 677,492.8 
		677,481.4 699.7,481.4 699.7,492.8 722.4,492.8 722.4,481.4 745.1,481.4 745.1,492.8 773.4,492.8 773.4,481.4 801.8,481.4 
		801.8,514 790.4,514 790.4,546.6 801.8,546.6 801.8,569.3 790.4,569.3 790.4,592 801.8,592 801.8,614.7 790.4,614.7 790.4,637.3 
		801.8,637.3 801.8,660 790.4,660 790.4,692.6 801.8,692.6 801.8,725.2 773.4,725.2 773.4,713.9 745.1,713.9 745.1,725.2 
		722.4,725.2 722.4,713.9 699.7,713.9 699.7,725.2 677,725.2 677,713.9 654.4,713.9 654.4,725.2 631.7,725.2 631.7,713.9 609,713.9 
		609,725.2 586.3,725.2 586.3,713.9 558,713.9 558,725.2 529.6,725.2 529.6,692.6 541,692.6 541,660 529.6,660 529.6,637.3 
		541,637.3 541,614.7 529.6,614.7 529.6,592 541,592 541,569.3 529.6,569.3 529.6,546.6 541,546.6 541,514 529.6,514 529.6,481.4 
		558,481.4 558,492.8 586.3,492.8 586.3,481.4 	"/>
</g>
</svg>
